<svg xmlns="http://www.w3.org/2000/svg" width="201" height="20" fill="none"><g clip-path="url(#a)"><path fill="url(#b)" d="M37.321 10.003C33.863 4.024 27.405 0 20 0 8.957 0 0 8.957 0 20h20c7.4 0 13.858-4.024 17.321-10.003v.006z"/><path fill="#4D96FF" d="M20 0c7.4 0 13.858 4.024 17.321 10.003A19.906 19.906 0 0 0 40 0H20z"/></g><g fill="#000" clip-path="url(#c)"><path d="M62.193 1.837v2.63h-4.71v14.105h-2.747V4.466H50V1.837h12.193zm1.745 11.858c.191.91.629 1.606 1.314 2.092s1.521.73 2.51.73c1.37 0 2.398-.494 3.084-1.483l2.128 1.244c-1.178 1.738-2.925 2.605-5.236 2.605-1.944 0-3.514-.593-4.71-1.781-1.195-1.188-1.792-2.69-1.792-4.507 0-1.818.59-3.28 1.769-4.483 1.178-1.203 2.692-1.806 4.54-1.806 1.753 0 3.194.615 4.316 1.842 1.123 1.227 1.687 2.716 1.687 4.47 0 .273-.032.63-.095 1.077h-9.515zm-.025-2.104h7.03c-.175-.972-.578-1.706-1.208-2.199-.63-.493-1.368-.741-2.211-.741-.957 0-1.754.262-2.39.79-.638.524-1.046 1.244-1.22 2.15zm17.478 7.292c-1.8 0-3.302-.605-4.507-1.817-1.203-1.21-1.806-2.702-1.806-4.471 0-1.77.6-3.28 1.806-4.483 1.203-1.203 2.704-1.806 4.507-1.806 1.164 0 2.223.28 3.18.836.958.559 1.675 1.307 2.154 2.248L84.5 10.68a3.067 3.067 0 0 0-1.232-1.351c-.549-.326-1.183-.491-1.9-.491-1.052 0-1.931.36-2.641 1.076-.71.717-1.064 1.611-1.064 2.678s.355 1.961 1.064 2.678c.71.717 1.59 1.076 2.641 1.076.702 0 1.334-.167 1.9-.503a3.27 3.27 0 0 0 1.278-1.339l2.224 1.269a5.697 5.697 0 0 1-2.2 2.272c-.957.559-2.016.836-3.18.836v.002zM94.92 6.306c1.37 0 2.479.437 3.325 1.314.845.878 1.265 2.08 1.265 3.611v7.34h-2.583v-7.075c0-.892-.238-1.577-.716-2.056-.479-.478-1.133-.716-1.961-.716-.909 0-1.643.281-2.2.848-.558.566-.835 1.43-.835 2.595v6.407h-2.583V1.837h2.583V8.15c.78-1.227 2.017-1.842 3.706-1.842v-.002zm17.335-1.84h-7.054v4.685h6.813v2.63h-6.813v6.788h-2.748V1.837h9.802v2.63zm2.413 14.106V1.118h2.583V18.57h-2.583v.003zm11.213.311c-1.754 0-3.244-.605-4.471-1.817-1.227-1.21-1.841-2.702-1.841-4.471 0-1.77.612-3.259 1.841-4.471 1.227-1.21 2.717-1.818 4.471-1.818 1.755 0 3.264.605 4.483 1.818 1.22 1.212 1.83 2.702 1.83 4.47 0 1.77-.61 3.261-1.83 4.472-1.219 1.212-2.714 1.817-4.483 1.817zm-2.653-3.586c.717.716 1.601 1.076 2.653 1.076s1.937-.36 2.654-1.076c.717-.717 1.076-1.619 1.076-2.702 0-1.084-.359-1.986-1.076-2.702-.717-.717-1.602-1.077-2.654-1.077-1.052 0-1.936.36-2.653 1.077-.717.716-1.076 1.618-1.076 2.702 0 1.083.359 1.985 1.076 2.702zm24.6-8.68h2.726L146.8 18.569h-2.534l-2.486-8.057-2.51 8.057h-2.534l-3.755-11.952h2.727l2.318 8.247 2.51-8.247h2.461l2.486 8.247 2.342-8.247h.003zm24.135-2.87-1.512 1.512 3.487 3.486 1.512-1.512-3.487-3.486zm-6.19-.004-3.486 3.486 1.512 1.512 3.486-3.486-1.512-1.512z"/><path d="M163.425 2.932h10.774V4.96h2.138V.857h-15.05V4.96h2.138V2.93zm6.514 3.42h-2.138v3.04h-6.548v2.075h2.454c-.734 3.939-2.265 7.562-2.282 7.6l-.109.258 2.056.579.087-.192c.017-.037 1.635-3.616 2.408-8.245h1.937v8.534h2.138v-8.534h6.548V9.392h-6.548v-3.04h-.003zM157.913.005l-1.512 1.512 2.938 2.938 1.512-1.512-2.938-2.938zm.001 4.894-1.512 1.512 2.938 2.938 1.512-1.512-2.938-2.938z"/><path d="m174.402 12.272-2.058.58 1.992 7.073 2.058-.58-1.992-7.073zm-16.031-1.594c-.554 4.177-2.345 8.346-2.364 8.388l-.112.26 2.055.578.088-.19c.017-.036 1.742-3.78 2.403-8.523l.029-.214-2.063-.581-.036.282zM189.873.207h-2.138V1.97h-3.003v2.075h3.003v1.3h-2.877v8.609h2.877v1.326h-3.003v2.076h3.003v2.64h2.138v-2.64h2.877v-2.075h-2.877v-1.327h.591a2.288 2.288 0 0 0 2.286-2.287V5.346h-2.877v-1.3h2.877V1.97h-2.877V.207zm.739 11.459a.152.152 0 0 1-.153.153h-3.462v-1.13h3.615v.977zm0-4.182v1.13h-3.615v-1.13h3.615zm7.455-6.691h-4.517V20h2.138v-6.525h2.381v4.126a.26.26 0 0 1-.26.26h-.947V20h.93a2.419 2.419 0 0 0 2.416-2.416V.793h-2.141zm0 10.606h-2.381V8.201h2.381V11.4zm0-5.273h-2.381V2.93h2.381v3.197zM181.482.12l-1.512 1.51 2.938 2.938 1.512-1.512L181.482.12zm.002 4.895-1.512 1.512 2.938 2.938 1.512-1.512-2.938-2.938zm.461 5.662c-.554 4.177-2.345 8.346-2.364 8.387l-.112.26 2.056.579.087-.19c.017-.036 1.742-3.78 2.403-8.524l.029-.213-2.063-.581-.036.282z"/></g><defs><clipPath id="a"><path fill="#fff" d="M0 0h40v20H0z"/></clipPath><clipPath id="c"><path fill="#fff" d="M50 0h150.205v20H50z"/></clipPath><linearGradient id="b" x1="0" x2="37.321" y1="10.003" y2="10.003" gradientUnits="userSpaceOnUse"><stop stop-color="#0072FF"/><stop offset="1" stop-color="#0037FF"/></linearGradient></defs></svg>