<svg xmlns="http://www.w3.org/2000/svg" width="95" height="36" overflow="hidden"><path fill="#0098EA" d="M19.01 35c9.89 0 17.905-7.835 17.905-17.5S28.9 0 19.011 0 1.106 7.835 1.106 17.5 9.122 35 19.01 35z"/><path fill="#FFF" d="M25.124 9.767H12.896c-2.248 0-3.673 2.37-2.542 4.287l7.547 12.784c.492.835 1.726.835 2.219 0l7.548-12.784c1.13-1.913-.296-4.287-2.542-4.287h-.002zm-7.23 13.237-1.643-3.109-3.965-6.932c-.262-.443.061-1.012.609-1.012h4.998v11.055l.002-.002zm7.838-10.042-3.964 6.935-1.644 3.107V11.95h4.998c.548 0 .871.568.61 1.012z"/><path d="M48.202 27.167h4.01v-13.67h5.545V9.775h-15.1v3.724h5.545v13.67zm19.193.294c5.063 0 9.199-4.042 9.199-8.99 0-4.949-4.136-8.991-9.199-8.991-5.088 0-9.198 4.042-9.198 8.99 0 4.95 4.11 8.991 9.198 8.991zm0-3.772c-2.907 0-5.188-2.401-5.188-5.218 0-2.818 2.28-5.218 5.188-5.218 2.882 0 5.163 2.4 5.163 5.218 0 2.817-2.28 5.218-5.163 5.218zm27.5 3.478V9.774h-4.011v10.73l-8.647-10.73h-3.434v17.393h3.985V16.413l8.673 10.754h3.434z"/></svg>