<svg xmlns="http://www.w3.org/2000/svg" width="106" height="30" overflow="hidden"><path d="M13.22 3.659h2.402l3.64 9.086 3.674-9.086h2.438L20.86 14.584l4.948 11.571L35.16 3.48h2.766L26.973 29.077h-2.256l-5.423-12.654-5.457 12.654h-2.219L.703 3.48h2.73l9.388 22.678 4.912-11.571L13.22 3.659zm31.435 25.418c-1.327 0-2.544-.247-3.648-.743a8.903 8.903 0 0 1-2.88-2.04 9.44 9.44 0 0 1-1.902-2.993 9.665 9.665 0 0 1-.682-3.632c0-1.29.228-2.461.682-3.58a9.248 9.248 0 0 1 1.884-2.939 8.937 8.937 0 0 1 2.88-2.005c1.118-.496 2.328-.743 3.631-.743s2.542.247 3.648.743a8.649 8.649 0 0 1 2.845 2.023 9.43 9.43 0 0 1 1.85 2.94 9.422 9.422 0 0 1 .663 3.528v.553c0 .184-.013.311-.036.381H38.02c.072.97.297 1.863.682 2.681a7.37 7.37 0 0 0 1.485 2.128 6.585 6.585 0 0 0 2.077 1.401 6.24 6.24 0 0 0 2.495.502c.582 0 1.164-.081 1.746-.241a7.155 7.155 0 0 0 1.606-.658 5.961 5.961 0 0 0 1.327-1.019c.396-.403.7-.848.907-1.333l2.06.553a5.995 5.995 0 0 1-1.186 1.817 8.318 8.318 0 0 1-1.78 1.418 8.78 8.78 0 0 1-2.235.934 9.763 9.763 0 0 1-2.549.329v-.005zm6.703-10.309c-.07-.969-.296-1.85-.68-2.645a7.236 7.236 0 0 0-1.468-2.059 6.477 6.477 0 0 0-4.555-1.835c-.882 0-1.723.163-2.513.485a6.458 6.458 0 0 0-2.077 1.35 6.643 6.643 0 0 0-1.431 2.076 7.822 7.822 0 0 0-.646 2.628h13.37zm13.964 10.309c-1.442 0-2.763-.357-3.962-1.072-1.2-.714-2.135-1.637-2.81-2.768v3.494h-2.13V3.479h2.374v11c.814-1.223 1.792-2.208 2.933-2.957 1.14-.75 2.467-1.125 3.98-1.125 1.279 0 2.427.265 3.438.796a8.059 8.059 0 0 1 2.583 2.128 9.972 9.972 0 0 1 1.642 3.01c.385 1.118.575 2.266.575 3.441a9.75 9.75 0 0 1-.664 3.597 9.443 9.443 0 0 1-1.816 2.957 8.59 8.59 0 0 1-2.74 2.006 7.939 7.939 0 0 1-3.405.743l.002.002zm-.558-2.076c1 0 1.914-.201 2.741-.605a6.702 6.702 0 0 0 2.13-1.626 7.8 7.8 0 0 0 1.397-2.317 7.33 7.33 0 0 0 .506-2.68c0-.924-.157-1.857-.47-2.734a7.56 7.56 0 0 0-1.328-2.335 6.463 6.463 0 0 0-2.06-1.626 5.787 5.787 0 0 0-2.635-.605c-.72 0-1.396.12-2.024.364a6.79 6.79 0 0 0-1.745.986 7.96 7.96 0 0 0-1.432 1.436 9.173 9.173 0 0 0-1.048 1.712v5.605c.093.622.343 1.206.75 1.747a6.251 6.251 0 0 0 1.467 1.4c.57.393 1.188.704 1.849.934.664.23 1.296.347 1.902.347V27zm31.026-4.785 1.65-1.633 7.857 7.205L103.064 30l-7.273-7.784zM85.533 8.784l-1.65 1.635-7.856-7.207L78.259 1l7.274 7.784zm-1.651 11.799 1.65 1.633L78.26 30l-2.232-2.212 7.855-7.205zM97.44 10.419l-1.65-1.635L103.065 1l2.233 2.212-7.858 7.207z"/></svg>