<svg xmlns="http://www.w3.org/2000/svg" width="154" height="22" overflow="hidden"><path fill="#FF0420" d="M8.981 21.502c-1.204 0-2.323-.158-3.356-.476-1.033-.317-1.903-.793-2.61-1.428-.708-.634-1.215-1.428-1.52-2.38-.288-.952-.326-2.062-.116-3.332.153-.802.316-1.605.488-2.408.191-.802.383-1.614.574-2.436.63-2.52 1.769-4.433 3.414-5.74 1.644-1.306 3.863-1.96 6.655-1.96 1.205 0 2.314.168 3.328.504 1.032.318 1.903.803 2.61 1.456a5.186 5.186 0 0 1 1.52 2.408c.307.952.345 2.063.115 3.332a34.282 34.282 0 0 1-.487 2.436 108.61 108.61 0 0 1-.545 2.408c-.65 2.558-1.798 4.47-3.443 5.74-1.644 1.25-3.853 1.876-6.627 1.876zm.373-4.032c1.033 0 1.942-.298 2.726-.896.784-.597 1.338-1.55 1.664-2.856.21-.821.392-1.596.545-2.324.172-.728.325-1.484.459-2.268.248-1.306.134-2.258-.345-2.856-.478-.597-1.233-.896-2.266-.896s-1.941.299-2.725.896c-.765.598-1.31 1.55-1.635 2.856-.21.784-.402 1.54-.574 2.268-.153.728-.306 1.503-.46 2.324-.229 1.307-.114 2.259.345 2.856.46.598 1.215.896 2.266.896zm13.768 3.752a.58.58 0 0 1-.46-.196c-.114-.13-.152-.298-.114-.504l3.959-18.2a.798.798 0 0 1 .316-.504.887.887 0 0 1 .545-.196h7.63c1.167 0 2.219.13 3.156.392.956.262 1.75.663 2.381 1.204a4.258 4.258 0 0 1 1.32 2.044c.248.803.258 1.746.028 2.828-.478 2.147-1.453 3.734-2.926 4.76-1.453 1.027-3.413 1.54-5.88 1.54h-3.873l-1.32 6.132a.798.798 0 0 1-.316.504.812.812 0 0 1-.545.196h-3.901zm6.827-10.696h3.3c.784 0 1.482-.205 2.094-.616.63-.41 1.042-1.036 1.233-1.876.096-.485.115-.914.058-1.288-.058-.373-.259-.672-.603-.896-.325-.224-.832-.336-1.52-.336h-3.443l-1.119 5.012zm17.235 10.696c-.21 0-.373-.065-.487-.196-.115-.13-.153-.298-.115-.504l3.184-14.504H44.66a.58.58 0 0 1-.46-.196.595.595 0 0 1-.114-.504l.66-2.996a.845.845 0 0 1 .287-.504.926.926 0 0 1 .574-.196H61.04c.21 0 .364.066.46.196.114.13.152.299.114.504l-.66 2.996a.908.908 0 0 1-.315.504.812.812 0 0 1-.545.196h-5.107l-3.155 14.504a.798.798 0 0 1-.316.504.812.812 0 0 1-.545.196h-3.787zm15.031 0c-.21 0-.373-.065-.488-.196-.114-.13-.153-.298-.114-.504l3.987-18.2a.799.799 0 0 1 .316-.504.888.888 0 0 1 .545-.196h3.873a.58.58 0 0 1 .459.196c.114.13.153.299.114.504l-3.987 18.2a.798.798 0 0 1-.316.504.774.774 0 0 1-.516.196h-3.873zm11.768 0c-.21 0-.373-.065-.487-.196-.115-.13-.153-.298-.115-.504l3.959-18.2a.798.798 0 0 1 .315-.504.926.926 0 0 1 .574-.196h3.098c.306 0 .516.084.631.252.134.15.22.27.258.364l3.099 8.848 7-8.848a1.8 1.8 0 0 1 .344-.364c.19-.168.44-.252.745-.252h3.099c.21 0 .373.066.487.196.115.13.153.299.115.504l-3.959 18.2a.798.798 0 0 1-.315.504.926.926 0 0 1-.574.196h-3.443a.58.58 0 0 1-.459-.196c-.114-.13-.152-.298-.114-.504l2.237-10.332-4.389 5.684a3.66 3.66 0 0 1-.488.448c-.172.13-.391.196-.66.196H83.45c-.268 0-.46-.065-.574-.196-.115-.13-.2-.28-.258-.448l-2.037-5.936-2.323 10.584a.798.798 0 0 1-.316.504.774.774 0 0 1-.516.196h-3.443zm25.306 0c-.21 0-.373-.065-.487-.196-.115-.13-.153-.298-.115-.504l3.987-18.2a.799.799 0 0 1 .316-.504.887.887 0 0 1 .545-.196h3.873a.58.58 0 0 1 .459.196c.114.13.153.299.114.504l-3.987 18.2a.797.797 0 0 1-.316.504.773.773 0 0 1-.516.196H99.29zm18.137.28c-1.912 0-3.48-.261-4.705-.784-1.205-.522-2.075-1.213-2.61-2.072-.517-.877-.698-1.801-.546-2.772a.832.832 0 0 1 .23-.392.64.64 0 0 1 .459-.196h3.672c.268 0 .459.047.574.14.114.094.23.215.344.364.077.28.23.55.459.812.23.262.545.476.947.644.42.15.937.224 1.549.224 1.11 0 1.999-.168 2.668-.504.67-.336 1.061-.793 1.176-1.372.115-.41.039-.746-.23-1.008-.248-.28-.697-.522-1.348-.728-.631-.224-1.481-.448-2.553-.672-1.396-.298-2.543-.71-3.443-1.232-.898-.541-1.53-1.222-1.893-2.044-.344-.84-.391-1.838-.143-2.996.383-1.717 1.33-3.07 2.84-4.06 1.51-1.008 3.47-1.512 5.88-1.512 1.244 0 2.344.168 3.3.504.975.336 1.788.784 2.438 1.344.65.56 1.119 1.158 1.406 1.792.287.616.383 1.223.287 1.82a.709.709 0 0 1-.23.42.694.694 0 0 1-.459.168h-3.844a1.16 1.16 0 0 1-.516-.112.934.934 0 0 1-.345-.364c0-.41-.219-.765-.66-1.064-.439-.317-1.022-.476-1.75-.476-.821 0-1.51.15-2.065.448-.554.28-.898.719-1.033 1.316-.095.374-.047.7.144.98.21.28.593.523 1.147.728.574.206 1.359.42 2.353.644 1.683.318 3.003.747 3.958 1.288.957.523 1.598 1.186 1.923 1.988.344.803.392 1.783.143 2.94-.42 1.904-1.444 3.35-3.07 4.34-1.606.97-3.758 1.456-6.454 1.456zm13.057-.28c-.211 0-.373-.065-.488-.196-.115-.13-.154-.298-.115-.504l3.96-18.2a.797.797 0 0 1 .315-.504.925.925 0 0 1 .573-.196h3.099c.305 0 .516.084.63.252.134.15.22.27.259.364l3.098 8.848 7-8.848c.057-.093.172-.214.344-.364.19-.168.44-.252.746-.252h3.098c.21 0 .373.066.488.196.115.13.153.299.115.504l-3.96 18.2a.801.801 0 0 1-.315.504.927.927 0 0 1-.573.196h-3.443a.58.58 0 0 1-.459-.196c-.115-.13-.154-.298-.115-.504l2.238-10.332-4.39 5.684a3.71 3.71 0 0 1-.487.448c-.172.13-.392.196-.66.196h-1.492c-.268 0-.459-.065-.573-.196a1.3 1.3 0 0 1-.258-.448l-2.037-5.936-2.324 10.584a.801.801 0 0 1-.316.504.777.777 0 0 1-.516.196h-3.442z"/></svg>